# xmcd CD database file
#
# Track frame offsets:
#	150
#	12890
#	28362
#	43850
#	59642
#	71472
#	85907
#	100785
#	115960
#	130852
#	146587
#	161275
#
# Disc length: 3037 seconds
#
# Revision: 0
# Processed by: cddbd v1.4PL0 Copyright (c) Steve Scherf et al.
# Submitted via: CDex 1.50
#
DISCID=a40bdb0c
DTITLE=Bessie Smith - The Complete Recordings Vol. 5 (Disk 1)
DYEAR=1996
DGENRE=Blues
TTITLE0=Need a Little Sugar in My Bowl
TTITLE1=Safety Mama
TTITLE2=Do Your Duty
TTITLE3=Gimme a Pigfoot
TTITLE4=Take Me for a Buggy Ride
TTITLE5=I'm Down in the Dumps
TTITLE6=Yellow Dog Blues
TTITLE7=Soft Pedal Blues
TTITLE8=Nashville Women's Blues
TTITLE9=Careless Love Blues
TTITLE10=Muddy Water (A Mississippi Moan)
TTITLE11=St. Louis Blues Soundtrack
EXTD=YEAR: 1996
EXTT0=
EXTT1=
EXTT2=
EXTT3=
EXTT4=
EXTT5=
EXTT6=
EXTT7=
EXTT8=
EXTT9=
EXTT10=
EXTT11=
PLAYORDER=
